<?xml version="1.0" standalone="no"?>
<!DOCTYPE svg PUBLIC "-//W3C//DTD SVG 20010904//EN"
 "http://www.w3.org/TR/2001/REC-SVG-20010904/DTD/svg10.dtd">
<svg version="1.0" xmlns="http://www.w3.org/2000/svg"
 width="450.000000pt" height="450.000000pt" viewBox="0 0 450.000000 450.000000"
 preserveAspectRatio="xMidYMid meet">
<metadata>
Created by potrace 1.11, written by Peter Selinger 2001-2013
</metadata>
<g transform="translate(0.000000,450.000000) scale(0.100000,-0.100000)"
fill="#000000" stroke="none">
<path d="M1240 3063 c-28 -10 -40 -36 -40 -86 0 -48 -1 -49 -18 -34 -16 14
-43 17 -175 17 -190 0 -187 1 -187 -108 l0 -76 -20 22 c-20 21 -29 22 -174 22
-183 0 -186 -2 -186 -98 l0 -62 191 0 190 0 -3 -95 -3 -96 -188 0 -187 -1 0
-377 c0 -353 1 -379 18 -394 16 -14 43 -17 170 -17 139 0 154 2 172 20 l20 20
0 -71 c0 -113 -6 -109 182 -109 136 0 164 3 180 17 17 15 18 14 18 -40 0 -80
17 -87 195 -87 131 0 137 1 160 25 l25 24 0 771 0 771 -25 24 c-23 24 -28 25
-162 24 -76 0 -145 -3 -153 -6z"/>
<path d="M2945 3046 l-25 -25 0 -771 0 -771 25 -24 c23 -24 29 -25 162 -25
176 0 186 5 193 84 4 52 7 57 19 43 11 -15 36 -17 172 -17 192 0 189 -2 189
108 l0 76 20 -22 c20 -21 29 -22 174 -22 135 0 155 2 169 18 15 17 17 59 17
395 l0 377 -187 -2 -188 -1 -3 96 -3 97 191 0 190 0 0 63 c0 96 -3 97 -193 97
-150 0 -156 -1 -171 -22 -15 -21 -16 -18 -16 53 0 109 1 109 -193 109 -150 0
-156 -1 -171 -22 -15 -21 -16 -20 -16 33 0 92 -4 93 -179 97 -150 3 -151 3
-176 -22z"/>
</g>
</svg>
