<?xml version="1.0" standalone="no"?>
<!DOCTYPE svg PUBLIC "-//W3C//DTD SVG 20010904//EN"
 "http://www.w3.org/TR/2001/REC-SVG-20010904/DTD/svg10.dtd">
<svg version="1.0" xmlns="http://www.w3.org/2000/svg"
 width="450.000000pt" height="450.000000pt" viewBox="0 0 450.000000 450.000000"
 preserveAspectRatio="xMidYMid meet">
<metadata>
Created by potrace 1.11, written by Peter Selinger 2001-2013
</metadata>
<g transform="translate(0.000000,450.000000) scale(0.100000,-0.100000)"
fill="#000000" stroke="none">
<path d="M1365 3069 c-60 -4 -118 -9 -129 -11 -27 -7 -36 -29 -32 -82 3 -47
-8 -59 -29 -30 -8 11 -26 16 -56 16 -24 0 -62 0 -84 -1 -22 0 -65 0 -95 0
-110 1 -112 0 -116 -86 -2 -37 -5 -69 -8 -72 -2 -3 -14 3 -25 14 -18 16 -37
19 -163 18 -120 0 -147 -3 -168 -18 l-25 -17 0 -200 1 -200 -61 -1 c-152 -3
-150 -1 -149 -155 1 -147 2 -149 119 -147 71 1 85 -1 88 -15 3 -9 4 -96 3
-194 -2 -234 -12 -222 176 -223 118 -1 146 2 174 17 32 17 34 17 35 1 1 -10 0
-22 -1 -28 -10 -47 -6 -83 12 -105 18 -23 24 -24 161 -25 163 -1 174 0 182 26
11 34 26 9 22 -35 -4 -31 0 -47 15 -66 19 -24 22 -24 175 -24 l155 -1 22 27
c21 27 21 35 21 323 0 163 2 301 6 306 3 6 14 10 25 9 10 0 305 -2 654 -4 349
-2 637 -4 640 -5 3 0 5 -133 4 -293 0 -194 3 -298 10 -307 6 -8 10 -16 9 -18
-21 -28 33 -39 189 -38 174 1 181 4 184 87 1 29 3 55 3 57 1 2 9 -7 20 -20 18
-22 25 -23 157 -24 140 -2 185 7 196 37 3 7 4 35 2 63 -6 68 0 81 25 58 18
-17 38 -19 172 -18 199 1 186 -16 184 230 -2 216 -7 205 105 203 89 -2 98 10
103 142 4 110 -8 160 -39 160 -9 0 -12 -5 -8 -12 6 -10 5 -10 -7 -1 -17 13
-99 20 -117 9 -6 -4 -17 3 -26 16 -11 18 -14 60 -12 203 3 233 13 221 -180
220 -147 -1 -184 -7 -184 -31 0 -8 -4 -14 -10 -14 -6 0 -8 29 -6 70 3 53 0 74
-11 85 -17 18 -4 16 -173 18 -127 2 -180 -5 -180 -25 0 -4 -4 -8 -10 -8 -6 0
-10 26 -10 59 0 83 -9 87 -185 85 -77 -1 -143 -2 -147 -3 -4 0 -17 -12 -30
-26 -23 -24 -23 -25 -23 -335 l0 -310 -30 -1 c-16 -1 -34 0 -40 1 -5 2 -288 4
-627 4 -339 1 -620 5 -625 9 -4 5 -8 146 -8 314 l0 306 -27 20 c-31 23 -44 24
-193 16z"/>
</g>
</svg>
